<mxfile host="app.diagrams.net" modified="2023-06-30T11:45:17.490Z" agent="Mozilla/5.0 (Windows NT 10.0; Win64; x64) AppleWebKit/537.36 (KHTML, like Gecko) Chrome/114.0.0.0 Safari/537.36" version="21.5.2" etag="AUtFngR1GYjIR8tLFvRc" type="github">
  <diagram name="Page-1" id="A3YOBVGtqxAZEOPY_WBS">
    <mxGraphModel>
      <root>
        <mxCell id="0" />
        <mxCell id="1" parent="0" />
      </root>
    </mxGraphModel>
  </diagram>
</mxfile>
